<svg id="Capa_1" data-name="Capa 1" xmlns="http://www.w3.org/2000/svg" viewBox="0 0 75 54.51"><defs><style>.cls-1{fill:#010101;}</style></defs><title>logo-newera-negro</title><path class="cls-1" d="M65.29,20.47a8.14,8.14,0,0,0-5.93-3.93L39.14,12.92c-1-2.35-4-4.81-8.28-5.89L4.32.41A3.33,3.33,0,0,0,.05,4.33s6,44.88,6.43,47.38,2.73,3.66,5.24,2.77c2.35-.84,21.91-8.55,25-9.74,4.2-1.62,6.48-1.89,7.25.07,1.23,3.16,4.89,3.32,9.28.81L73.73,33.8Zm.16,4.28,1.65,2.73-16,2.93L49,26ZM60,19a3.76,3.76,0,0,1,3,1.73c.16.23.7,1.08.7,1.08l-16.91-.5-1.93-4Zm-52-13.4,10,2s.85,2.85.92,3.2a2.59,2.59,0,0,1,3.32-2.35c1.84.34,4.73,1,5.93,1.19,5.31,1,7.74,2,9.7,6.47L44,30.45c-1.34-.85-3.12-1.2-7.58-.62L35.29,30,31.21,19c-.93-2.54-2-4.08-5.09-4.47-.84-.07-6.47-.77-6.47-.77l5.09,17.6L13.49,32.76ZM47.31,38.19c-.54-1.27-3-1.19-7.59.15L16.11,45.2l-1.66-8.05,23.27-4.28c4.35-.8,7.2-.34,8.35,2.39.31.7.47,1.08.47,1.08l22-6.51,1.85,3L55.55,39.46C51.81,41.12,48.46,40.92,47.31,38.19Z" transform="translate(0 -0.27)"/><path class="cls-1" d="M73.5,35.46A1.48,1.48,0,0,0,72,37a1.51,1.51,0,0,0,1.54,1.5A1.48,1.48,0,0,0,75,37,1.5,1.5,0,0,0,73.5,35.46Zm0,2.77a1.27,1.27,0,0,1,0-2.54A1.28,1.28,0,0,1,74.73,37,1.23,1.23,0,0,1,73.5,38.23Z" transform="translate(0 -0.27)"/><path class="cls-1" d="M74.15,36.57c0-.34-.19-.5-.61-.5h-.66V37.8h.27V37h.31l.46.77h.27l-.5-.77A.42.42,0,0,0,74.15,36.57Zm-1,.27V36.3h.35c.31,0,.38.12.38.27s-.11.27-.42.27Z" transform="translate(0 -0.27)"/></svg>